M48
; DRILL file {KiCad 5.1.6} date Sun Mar  7 15:50:02 2021
; FORMAT={-:-/ absolute / metric / decimal}
; #@! TF.CreationDate,2021-03-07T15:50:02+10:30
; #@! TF.GenerationSoftware,Kicad,Pcbnew,5.1.6
; #@! TF.FileFunction,Plated,1,2,PTH
FMAT,2
METRIC
T1C1.000
T2C1.016
%
G90
G05
T1
X162.882Y-100.282
X145.561Y-103.026
X165.454Y-98.797
X160.169Y-101.49
X137.118Y-100.282
X157.344Y-102.408
X134.546Y-98.797
X142.656Y-102.408
X148.515Y-103.336
X151.485Y-103.336
X154.439Y-103.026
X139.831Y-101.49
T2
X136.0Y-107.825
X138.54Y-107.825
X141.08Y-107.825
X143.62Y-107.825
X146.16Y-107.825
X148.7Y-107.825
X151.24Y-107.825
X153.78Y-107.825
X156.32Y-107.825
X158.86Y-107.825
X161.4Y-107.825
X163.94Y-107.825
T0
M30
