%TF.GenerationSoftware,KiCad,Pcbnew,5.1.6*%
%TF.CreationDate,2021-03-07T15:49:58+10:30*%
%TF.ProjectId,springboard,73707269-6e67-4626-9f61-72642e6b6963,1.0*%
%TF.SameCoordinates,Original*%
%TF.FileFunction,Copper,L1,Top*%
%TF.FilePolarity,Positive*%
%FSLAX46Y46*%
G04 Gerber Fmt 4.6, Leading zero omitted, Abs format (unit mm)*
G04 Created by KiCad (PCBNEW 5.1.6) date 2021-03-07 15:49:58*
%MOMM*%
%LPD*%
G01*
G04 APERTURE LIST*
%TA.AperFunction,ComponentPad*%
%ADD10O,1.727200X2.032000*%
%TD*%
%TA.AperFunction,ComponentPad*%
%ADD11R,1.727200X2.032000*%
%TD*%
%TA.AperFunction,ComponentPad*%
%ADD12C,2.640000*%
%TD*%
%TA.AperFunction,Conductor*%
%ADD13C,0.800000*%
%TD*%
G04 APERTURE END LIST*
D10*
%TO.P,P13,12*%
%TO.N,/12*%
X163940000Y-107825000D03*
%TO.P,P13,11*%
%TO.N,/11*%
X161400000Y-107825000D03*
%TO.P,P13,10*%
%TO.N,/10*%
X158860000Y-107825000D03*
%TO.P,P13,9*%
%TO.N,/9*%
X156320000Y-107825000D03*
%TO.P,P13,8*%
%TO.N,/8*%
X153780000Y-107825000D03*
%TO.P,P13,7*%
%TO.N,/7*%
X151240000Y-107825000D03*
%TO.P,P13,6*%
%TO.N,/6*%
X148700000Y-107825000D03*
%TO.P,P13,5*%
%TO.N,/5*%
X146160000Y-107825000D03*
%TO.P,P13,4*%
%TO.N,/4*%
X143620000Y-107825000D03*
%TO.P,P13,3*%
%TO.N,/3*%
X141080000Y-107825000D03*
%TO.P,P13,2*%
%TO.N,/2*%
X138540000Y-107825000D03*
D11*
%TO.P,P13,1*%
%TO.N,/1*%
X136000000Y-107825000D03*
%TD*%
D12*
%TO.P,P12,1*%
%TO.N,/12*%
X165454132Y-98797277D03*
%TD*%
%TO.P,P11,1*%
%TO.N,/11*%
X162881980Y-100282310D03*
%TD*%
%TO.P,P10,1*%
%TO.N,/10*%
X160168690Y-101490344D03*
%TD*%
%TO.P,P9,1*%
%TO.N,/9*%
X157343990Y-102408145D03*
%TD*%
%TO.P,P8,1*%
%TO.N,/8*%
X154438827Y-103025656D03*
%TD*%
%TO.P,P7,1*%
%TO.N,/7*%
X151485032Y-103336113D03*
%TD*%
%TO.P,P6,1*%
%TO.N,/6*%
X148514968Y-103336113D03*
%TD*%
%TO.P,P5,1*%
%TO.N,/5*%
X145561173Y-103025656D03*
%TD*%
%TO.P,P4,1*%
%TO.N,/4*%
X142656010Y-102408145D03*
%TD*%
%TO.P,P3,1*%
%TO.N,/3*%
X139831310Y-101490344D03*
%TD*%
%TO.P,P2,1*%
%TO.N,/2*%
X137118020Y-100282310D03*
%TD*%
%TO.P,P1,1*%
%TO.N,/1*%
X134545868Y-98797277D03*
%TD*%
D13*
%TO.N,/1*%
X136000000Y-107825000D02*
X136000000Y-105925000D01*
X134545868Y-104470868D02*
X134545868Y-98797277D01*
X136000000Y-105925000D02*
X134545868Y-104470868D01*
%TO.N,/2*%
X138540000Y-107825000D02*
X138540000Y-105740000D01*
X137118020Y-104318020D02*
X137118020Y-100282310D01*
X138540000Y-105740000D02*
X137118020Y-104318020D01*
%TO.N,/3*%
X141080000Y-107825000D02*
X141080000Y-105905000D01*
X139831310Y-104656310D02*
X139831310Y-101490344D01*
X141080000Y-105905000D02*
X139831310Y-104656310D01*
%TO.N,/4*%
X143620000Y-107825000D02*
X143620000Y-105795000D01*
X142656010Y-104831010D02*
X142656010Y-102408145D01*
X143620000Y-105795000D02*
X142656010Y-104831010D01*
%TO.N,/5*%
X146160000Y-107825000D02*
X146160000Y-105685000D01*
X145561173Y-105086173D02*
X145561173Y-103025656D01*
X146160000Y-105685000D02*
X145561173Y-105086173D01*
%TO.N,/6*%
X148700000Y-103521145D02*
X148514968Y-103336113D01*
X148700000Y-107825000D02*
X148700000Y-103521145D01*
%TO.N,/7*%
X151240000Y-103581145D02*
X151485032Y-103336113D01*
X151240000Y-107825000D02*
X151240000Y-103581145D01*
%TO.N,/8*%
X153780000Y-107825000D02*
X153780000Y-105820000D01*
X154438827Y-105161173D02*
X154438827Y-103025656D01*
X153780000Y-105820000D02*
X154438827Y-105161173D01*
%TO.N,/9*%
X156320000Y-107825000D02*
X156320000Y-105855000D01*
X157343990Y-104831010D02*
X157343990Y-102408145D01*
X156320000Y-105855000D02*
X157343990Y-104831010D01*
%TO.N,/10*%
X158860000Y-107825000D02*
X158860000Y-105965000D01*
X160168690Y-104656310D02*
X160168690Y-101490344D01*
X158860000Y-105965000D02*
X160168690Y-104656310D01*
%TO.N,/11*%
X161400000Y-107825000D02*
X161400000Y-106025000D01*
X162881980Y-104543020D02*
X162881980Y-100282310D01*
X161400000Y-106025000D02*
X162881980Y-104543020D01*
%TO.N,/12*%
X163940000Y-107825000D02*
X163940000Y-105910000D01*
X165454132Y-104395868D02*
X165454132Y-98797277D01*
X163940000Y-105910000D02*
X165454132Y-104395868D01*
%TD*%
M02*
